<?xml version="1.0" encoding="UTF-8" standalone="no"?>
<!DOCTYPE svg PUBLIC "-//W3C//DTD SVG 1.1//EN"
 "http://www.w3.org/Graphics/SVG/1.1/DTD/svg11.dtd">
<!-- Generated by graphviz version 2.47.0 (20210316.0004)
 -->
<!-- Title: dependencies Pages: 1 -->
<svg width="730pt" height="284pt"
 viewBox="0.00 0.00 730.00 284.00" xmlns="http://www.w3.org/2000/svg" xmlns:xlink="http://www.w3.org/1999/xlink">
<g id="graph0" class="graph" transform="scale(1 1) rotate(0) translate(4 280)">
<title>dependencies</title>
<polygon fill="white" stroke="transparent" points="-4,4 -4,-280 726,-280 726,4 -4,4"/>
<text text-anchor="start" x="340.01" y="-42.4" font-family="Times-12" font-weight="bold" font-size="14.00">Legend</text>
<polygon fill="#ffffb3" stroke="transparent" points="127,-10 127,-30 147,-30 147,-10 127,-10"/>
<text text-anchor="start" x="150.63" y="-15.4" font-family="Times-12" font-size="14.00"> &#160;Declarations</text>
<polygon fill="#8dd3c7" stroke="transparent" points="240,-10 240,-30 260,-30 260,-10 240,-10"/>
<text text-anchor="start" x="263.73" y="-15.4" font-family="Times-12" font-size="14.00"> &#160;Module</text>
<polygon fill="#80b1d3" stroke="transparent" points="326,-10 326,-30 346,-30 346,-10 326,-10"/>
<text text-anchor="start" x="349.78" y="-15.4" font-family="Times-12" font-size="14.00"> &#160;Bootstrap</text>
<polygon fill="#fdb462" stroke="transparent" points="423,-10 423,-30 443,-30 443,-10 423,-10"/>
<text text-anchor="start" x="446.67" y="-15.4" font-family="Times-12" font-size="14.00"> &#160;Providers</text>
<polygon fill="#fb8072" stroke="transparent" points="519,-10 519,-30 539,-30 539,-10 519,-10"/>
<text text-anchor="start" x="542.73" y="-15.4" font-family="Times-12" font-size="14.00"> &#160;Exports</text>
<g id="clust1" class="cluster">
<title>cluster_NgxInputGradientModule</title>
<polygon fill="none" stroke="black" stroke-dasharray="1,5" points="8,-70 8,-268 714,-268 714,-70 8,-70"/>
</g>
<g id="clust3" class="cluster">
<title>cluster_NgxInputGradientModule_imports</title>
<polygon fill="none" stroke="black" points="16,-78 16,-130 706,-130 706,-78 16,-78"/>
</g>
<g id="clust4" class="cluster">
<title>cluster_NgxInputGradientModule_exports</title>
<polygon fill="none" stroke="black" points="124,-208 124,-260 520,-260 520,-208 124,-208"/>
</g>
<!-- NgxInputGradientComponent -->
<g id="node1" class="node">
<title>NgxInputGradientComponent</title>
<polygon fill="#8dd3c7" stroke="black" points="697.97,-122 694.97,-126 673.97,-126 670.97,-122 514.03,-122 514.03,-86 697.97,-86 697.97,-122"/>
<text text-anchor="middle" x="606" y="-99.8" font-family="Times,serif" font-size="14.00">NgxInputGradientComponent</text>
</g>
<!-- NgxInputGradientModule -->
<g id="node5" class="node">
<title>NgxInputGradientModule</title>
<polygon fill="#8dd3c7" stroke="black" points="399.19,-187 396.19,-191 375.19,-191 372.19,-187 236.81,-187 236.81,-151 399.19,-151 399.19,-187"/>
<text text-anchor="middle" x="318" y="-164.8" font-family="Times,serif" font-size="14.00">NgxInputGradientModule</text>
</g>
<!-- NgxInputGradientComponent&#45;&gt;NgxInputGradientModule -->
<g id="edge1" class="edge">
<title>NgxInputGradientComponent&#45;&gt;NgxInputGradientModule</title>
<path fill="none" stroke="black" d="M606,-122.11C606,-141.34 606,-169 606,-169 606,-169 409.37,-169 409.37,-169"/>
<polygon fill="black" stroke="black" points="409.37,-165.5 399.37,-169 409.37,-172.5 409.37,-165.5"/>
</g>
<!-- NgxInputGradientDirective -->
<g id="node2" class="node">
<title>NgxInputGradientDirective</title>
<polygon fill="#8dd3c7" stroke="black" points="496.22,-122 493.22,-126 472.22,-126 469.22,-122 325.78,-122 325.78,-86 496.22,-86 496.22,-122"/>
<text text-anchor="middle" x="411" y="-99.8" font-family="Times,serif" font-size="14.00">NgxInputGradientDirective</text>
</g>
<!-- NgxInputGradientDirective&#45;&gt;NgxInputGradientModule -->
<g id="edge2" class="edge">
<title>NgxInputGradientDirective&#45;&gt;NgxInputGradientModule</title>
<path fill="none" stroke="black" d="M362.37,-122.11C362.37,-122.11 362.37,-140.99 362.37,-140.99"/>
<polygon fill="black" stroke="black" points="358.87,-140.99 362.37,-150.99 365.87,-140.99 358.87,-140.99"/>
</g>
<!-- RangeSliderComponent -->
<g id="node3" class="node">
<title>RangeSliderComponent</title>
<polygon fill="#8dd3c7" stroke="black" points="307.04,-122 304.04,-126 283.04,-126 280.04,-122 156.96,-122 156.96,-86 307.04,-86 307.04,-122"/>
<text text-anchor="middle" x="232" y="-99.8" font-family="Times,serif" font-size="14.00">RangeSliderComponent</text>
</g>
<!-- RangeSliderComponent&#45;&gt;NgxInputGradientModule -->
<g id="edge3" class="edge">
<title>RangeSliderComponent&#45;&gt;NgxInputGradientModule</title>
<path fill="none" stroke="black" d="M272.09,-122.11C272.09,-122.11 272.09,-140.99 272.09,-140.99"/>
<polygon fill="black" stroke="black" points="268.59,-140.99 272.09,-150.99 275.59,-140.99 268.59,-140.99"/>
</g>
<!-- SliderComponent -->
<g id="node4" class="node">
<title>SliderComponent</title>
<polygon fill="#8dd3c7" stroke="black" points="138.27,-122 135.27,-126 114.27,-126 111.27,-122 23.73,-122 23.73,-86 138.27,-86 138.27,-122"/>
<text text-anchor="middle" x="81" y="-99.8" font-family="Times,serif" font-size="14.00">SliderComponent</text>
</g>
<!-- SliderComponent&#45;&gt;NgxInputGradientModule -->
<g id="edge4" class="edge">
<title>SliderComponent&#45;&gt;NgxInputGradientModule</title>
<path fill="none" stroke="black" d="M77.75,-122.11C77.75,-141.34 77.75,-169 77.75,-169 77.75,-169 226.66,-169 226.66,-169"/>
<polygon fill="black" stroke="black" points="226.66,-172.5 236.66,-169 226.66,-165.5 226.66,-172.5"/>
</g>
<!-- NgxInputGradientComponent  -->
<g id="node6" class="node">
<title>NgxInputGradientComponent </title>
<polygon fill="#fb8072" stroke="black" points="511.97,-252 324.03,-252 324.03,-216 511.97,-216 511.97,-252"/>
<text text-anchor="middle" x="418" y="-229.8" font-family="Times,serif" font-size="14.00">NgxInputGradientComponent </text>
</g>
<!-- NgxInputGradientModule&#45;&gt;NgxInputGradientComponent  -->
<g id="edge5" class="edge">
<title>NgxInputGradientModule&#45;&gt;NgxInputGradientComponent </title>
<path fill="none" stroke="black" stroke-dasharray="5,2" d="M361.68,-187.11C361.68,-187.11 361.68,-205.99 361.68,-205.99"/>
<polygon fill="black" stroke="black" points="358.18,-205.99 361.68,-215.99 365.18,-205.99 358.18,-205.99"/>
</g>
<!-- NgxInputGradientDirective  -->
<g id="node7" class="node">
<title>NgxInputGradientDirective </title>
<polygon fill="#fb8072" stroke="black" points="306.22,-252 131.78,-252 131.78,-216 306.22,-216 306.22,-252"/>
<text text-anchor="middle" x="219" y="-229.8" font-family="Times,serif" font-size="14.00">NgxInputGradientDirective </text>
</g>
<!-- NgxInputGradientModule&#45;&gt;NgxInputGradientDirective  -->
<g id="edge6" class="edge">
<title>NgxInputGradientModule&#45;&gt;NgxInputGradientDirective </title>
<path fill="none" stroke="black" stroke-dasharray="5,2" d="M271.51,-187.11C271.51,-187.11 271.51,-205.99 271.51,-205.99"/>
<polygon fill="black" stroke="black" points="268.01,-205.99 271.51,-215.99 275.01,-205.99 268.01,-205.99"/>
</g>
</g>
</svg>
