<?xml version="1.0" encoding="UTF-8" standalone="no"?>
<!DOCTYPE svg PUBLIC "-//W3C//DTD SVG 1.1//EN"
 "http://www.w3.org/Graphics/SVG/1.1/DTD/svg11.dtd">
<!-- Generated by graphviz version 2.47.0 (20210316.0004)
 -->
<!-- Title: dependencies Pages: 1 -->
<svg width="1340pt" height="284pt"
 viewBox="0.00 0.00 1340.00 284.00" xmlns="http://www.w3.org/2000/svg" xmlns:xlink="http://www.w3.org/1999/xlink">
<g id="graph0" class="graph" transform="scale(1 1) rotate(0) translate(4 280)">
<title>dependencies</title>
<polygon fill="white" stroke="transparent" points="-4,4 -4,-280 1336,-280 1336,4 -4,4"/>
<text text-anchor="start" x="645.01" y="-42.4" font-family="Times-12" font-weight="bold" font-size="14.00">Legend</text>
<polygon fill="#ffffb3" stroke="transparent" points="432,-10 432,-30 452,-30 452,-10 432,-10"/>
<text text-anchor="start" x="455.63" y="-15.4" font-family="Times-12" font-size="14.00"> &#160;Declarations</text>
<polygon fill="#8dd3c7" stroke="transparent" points="545,-10 545,-30 565,-30 565,-10 545,-10"/>
<text text-anchor="start" x="568.73" y="-15.4" font-family="Times-12" font-size="14.00"> &#160;Module</text>
<polygon fill="#80b1d3" stroke="transparent" points="631,-10 631,-30 651,-30 651,-10 631,-10"/>
<text text-anchor="start" x="654.78" y="-15.4" font-family="Times-12" font-size="14.00"> &#160;Bootstrap</text>
<polygon fill="#fdb462" stroke="transparent" points="728,-10 728,-30 748,-30 748,-10 728,-10"/>
<text text-anchor="start" x="751.67" y="-15.4" font-family="Times-12" font-size="14.00"> &#160;Providers</text>
<polygon fill="#fb8072" stroke="transparent" points="824,-10 824,-30 844,-30 844,-10 824,-10"/>
<text text-anchor="start" x="847.73" y="-15.4" font-family="Times-12" font-size="14.00"> &#160;Exports</text>
<g id="clust1" class="cluster">
<title>cluster_NgxInputColorModule</title>
<polygon fill="none" stroke="black" stroke-dasharray="1,5" points="8,-70 8,-268 1324,-268 1324,-70 8,-70"/>
</g>
<g id="clust2" class="cluster">
<title>cluster_NgxInputColorModule_declarations</title>
<polygon fill="none" stroke="black" points="452,-78 452,-130 1316,-130 1316,-78 452,-78"/>
</g>
<g id="clust9" class="cluster">
<title>cluster_NgxInputColorModule_imports</title>
<polygon fill="none" stroke="black" points="16,-78 16,-130 444,-130 444,-78 16,-78"/>
</g>
<g id="clust10" class="cluster">
<title>cluster_NgxInputColorModule_exports</title>
<polygon fill="none" stroke="black" points="463,-208 463,-260 825,-260 825,-208 463,-208"/>
</g>
<!-- CmykComponent -->
<g id="node1" class="node">
<title>CmykComponent</title>
<polygon fill="#ffffb3" stroke="black" points="1307.56,-122 1192.44,-122 1192.44,-86 1307.56,-86 1307.56,-122"/>
<text text-anchor="middle" x="1250" y="-99.8" font-family="Times,serif" font-size="14.00">CmykComponent</text>
</g>
<!-- NgxInputColorModule -->
<g id="node7" class="node">
<title>NgxInputColorModule</title>
<polygon fill="#8dd3c7" stroke="black" points="713.6,-187 710.6,-191 689.6,-191 686.6,-187 568.4,-187 568.4,-151 713.6,-151 713.6,-187"/>
<text text-anchor="middle" x="641" y="-164.8" font-family="Times,serif" font-size="14.00">NgxInputColorModule</text>
</g>
<!-- CmykComponent&#45;&gt;NgxInputColorModule -->
<g id="edge1" class="edge">
<title>CmykComponent&#45;&gt;NgxInputColorModule</title>
<path fill="none" stroke="black" d="M1250,-122.29C1250,-144.21 1250,-178 1250,-178 1250,-178 723.55,-178 723.55,-178"/>
<polygon fill="black" stroke="black" points="723.55,-174.5 713.55,-178 723.55,-181.5 723.55,-174.5"/>
</g>
<!-- HslComponent -->
<g id="node2" class="node">
<title>HslComponent</title>
<polygon fill="#ffffb3" stroke="black" points="1174.27,-122 1073.73,-122 1073.73,-86 1174.27,-86 1174.27,-122"/>
<text text-anchor="middle" x="1124" y="-99.8" font-family="Times,serif" font-size="14.00">HslComponent</text>
</g>
<!-- HslComponent&#45;&gt;NgxInputColorModule -->
<g id="edge2" class="edge">
<title>HslComponent&#45;&gt;NgxInputColorModule</title>
<path fill="none" stroke="black" d="M1124,-122.11C1124,-141.34 1124,-169 1124,-169 1124,-169 723.57,-169 723.57,-169"/>
<polygon fill="black" stroke="black" points="723.57,-165.5 713.57,-169 723.57,-172.5 723.57,-165.5"/>
</g>
<!-- NgxInputColorComponent -->
<g id="node3" class="node">
<title>NgxInputColorComponent</title>
<polygon fill="#ffffb3" stroke="black" points="1055.38,-122 888.62,-122 888.62,-86 1055.38,-86 1055.38,-122"/>
<text text-anchor="middle" x="972" y="-99.8" font-family="Times,serif" font-size="14.00">NgxInputColorComponent</text>
</g>
<!-- NgxInputColorComponent&#45;&gt;NgxInputColorModule -->
<g id="edge3" class="edge">
<title>NgxInputColorComponent&#45;&gt;NgxInputColorModule</title>
<path fill="none" stroke="black" d="M972,-122.03C972,-138.4 972,-160 972,-160 972,-160 723.64,-160 723.64,-160"/>
<polygon fill="black" stroke="black" points="723.64,-156.5 713.64,-160 723.64,-163.5 723.64,-156.5"/>
</g>
<!-- NgxInputColorDirective -->
<g id="node4" class="node">
<title>NgxInputColorDirective</title>
<polygon fill="#ffffb3" stroke="black" points="870.63,-122 717.37,-122 717.37,-86 870.63,-86 870.63,-122"/>
<text text-anchor="middle" x="794" y="-99.8" font-family="Times,serif" font-size="14.00">NgxInputColorDirective</text>
</g>
<!-- NgxInputColorDirective&#45;&gt;NgxInputColorModule -->
<g id="edge4" class="edge">
<title>NgxInputColorDirective&#45;&gt;NgxInputColorModule</title>
<path fill="none" stroke="black" d="M717.27,-104C710.73,-104 706.55,-104 706.55,-104 706.55,-104 706.55,-140.89 706.55,-140.89"/>
<polygon fill="black" stroke="black" points="703.05,-140.89 706.55,-150.89 710.05,-140.89 703.05,-140.89"/>
</g>
<!-- PickerComponent -->
<g id="node5" class="node">
<title>PickerComponent</title>
<polygon fill="#ffffb3" stroke="black" points="699.6,-122 582.4,-122 582.4,-86 699.6,-86 699.6,-122"/>
<text text-anchor="middle" x="641" y="-99.8" font-family="Times,serif" font-size="14.00">PickerComponent</text>
</g>
<!-- PickerComponent&#45;&gt;NgxInputColorModule -->
<g id="edge5" class="edge">
<title>PickerComponent&#45;&gt;NgxInputColorModule</title>
<path fill="none" stroke="black" d="M641,-122.11C641,-122.11 641,-140.99 641,-140.99"/>
<polygon fill="black" stroke="black" points="637.5,-140.99 641,-150.99 644.5,-140.99 637.5,-140.99"/>
</g>
<!-- RgbComponent -->
<g id="node6" class="node">
<title>RgbComponent</title>
<polygon fill="#ffffb3" stroke="black" points="564.17,-122 459.83,-122 459.83,-86 564.17,-86 564.17,-122"/>
<text text-anchor="middle" x="512" y="-99.8" font-family="Times,serif" font-size="14.00">RgbComponent</text>
</g>
<!-- RgbComponent&#45;&gt;NgxInputColorModule -->
<g id="edge6" class="edge">
<title>RgbComponent&#45;&gt;NgxInputColorModule</title>
<path fill="none" stroke="black" d="M564.4,-104C570.98,-104 575.45,-104 575.45,-104 575.45,-104 575.45,-140.89 575.45,-140.89"/>
<polygon fill="black" stroke="black" points="571.95,-140.89 575.45,-150.89 578.95,-140.89 571.95,-140.89"/>
</g>
<!-- NgxInputColorComponent  -->
<g id="node11" class="node">
<title>NgxInputColorComponent </title>
<polygon fill="#fb8072" stroke="black" points="817.38,-252 646.62,-252 646.62,-216 817.38,-216 817.38,-252"/>
<text text-anchor="middle" x="732" y="-229.8" font-family="Times,serif" font-size="14.00">NgxInputColorComponent </text>
</g>
<!-- NgxInputColorModule&#45;&gt;NgxInputColorComponent  -->
<g id="edge10" class="edge">
<title>NgxInputColorModule&#45;&gt;NgxInputColorComponent </title>
<path fill="none" stroke="black" stroke-dasharray="5,2" d="M680.18,-187.11C680.18,-187.11 680.18,-205.99 680.18,-205.99"/>
<polygon fill="black" stroke="black" points="676.68,-205.99 680.18,-215.99 683.68,-205.99 676.68,-205.99"/>
</g>
<!-- NgxInputColorDirective  -->
<g id="node12" class="node">
<title>NgxInputColorDirective </title>
<polygon fill="#fb8072" stroke="black" points="628.63,-252 471.37,-252 471.37,-216 628.63,-216 628.63,-252"/>
<text text-anchor="middle" x="550" y="-229.8" font-family="Times,serif" font-size="14.00">NgxInputColorDirective </text>
</g>
<!-- NgxInputColorModule&#45;&gt;NgxInputColorDirective  -->
<g id="edge11" class="edge">
<title>NgxInputColorModule&#45;&gt;NgxInputColorDirective </title>
<path fill="none" stroke="black" stroke-dasharray="5,2" d="M598.51,-187.11C598.51,-187.11 598.51,-205.99 598.51,-205.99"/>
<polygon fill="black" stroke="black" points="595.01,-205.99 598.51,-215.99 602.01,-205.99 595.01,-205.99"/>
</g>
<!-- EnumToArrayPipe -->
<g id="node8" class="node">
<title>EnumToArrayPipe</title>
<polygon fill="#8dd3c7" stroke="black" points="436.03,-122 433.03,-126 412.03,-126 409.03,-122 313.97,-122 313.97,-86 436.03,-86 436.03,-122"/>
<text text-anchor="middle" x="375" y="-99.8" font-family="Times,serif" font-size="14.00">EnumToArrayPipe</text>
</g>
<!-- EnumToArrayPipe&#45;&gt;NgxInputColorModule -->
<g id="edge7" class="edge">
<title>EnumToArrayPipe&#45;&gt;NgxInputColorModule</title>
<path fill="none" stroke="black" d="M375,-122.03C375,-138.4 375,-160 375,-160 375,-160 558.31,-160 558.31,-160"/>
<polygon fill="black" stroke="black" points="558.31,-163.5 568.31,-160 558.31,-156.5 558.31,-163.5"/>
</g>
<!-- SaturationComponent -->
<g id="node9" class="node">
<title>SaturationComponent</title>
<polygon fill="#8dd3c7" stroke="black" points="295.38,-122 292.38,-126 271.38,-126 268.38,-122 156.62,-122 156.62,-86 295.38,-86 295.38,-122"/>
<text text-anchor="middle" x="226" y="-99.8" font-family="Times,serif" font-size="14.00">SaturationComponent</text>
</g>
<!-- SaturationComponent&#45;&gt;NgxInputColorModule -->
<g id="edge8" class="edge">
<title>SaturationComponent&#45;&gt;NgxInputColorModule</title>
<path fill="none" stroke="black" d="M226,-122.11C226,-141.34 226,-169 226,-169 226,-169 558.24,-169 558.24,-169"/>
<polygon fill="black" stroke="black" points="558.24,-172.5 568.24,-169 558.24,-165.5 558.24,-172.5"/>
</g>
<!-- SliderComponent -->
<g id="node10" class="node">
<title>SliderComponent</title>
<polygon fill="#8dd3c7" stroke="black" points="138.27,-122 135.27,-126 114.27,-126 111.27,-122 23.73,-122 23.73,-86 138.27,-86 138.27,-122"/>
<text text-anchor="middle" x="81" y="-99.8" font-family="Times,serif" font-size="14.00">SliderComponent</text>
</g>
<!-- SliderComponent&#45;&gt;NgxInputColorModule -->
<g id="edge9" class="edge">
<title>SliderComponent&#45;&gt;NgxInputColorModule</title>
<path fill="none" stroke="black" d="M81,-122.29C81,-144.21 81,-178 81,-178 81,-178 558.36,-178 558.36,-178"/>
<polygon fill="black" stroke="black" points="558.36,-181.5 568.36,-178 558.36,-174.5 558.36,-181.5"/>
</g>
</g>
</svg>
