<?xml version="1.0" encoding="UTF-8" standalone="no"?>
<!DOCTYPE svg PUBLIC "-//W3C//DTD SVG 1.1//EN"
 "http://www.w3.org/Graphics/SVG/1.1/DTD/svg11.dtd">
<!-- Generated by graphviz version 2.47.0 (20210316.0004)
 -->
<!-- Title: dependencies Pages: 1 -->
<svg width="1899pt" height="284pt"
 viewBox="0.00 0.00 1899.00 284.00" xmlns="http://www.w3.org/2000/svg" xmlns:xlink="http://www.w3.org/1999/xlink">
<g id="graph0" class="graph" transform="scale(1 1) rotate(0) translate(4 280)">
<title>dependencies</title>
<polygon fill="white" stroke="transparent" points="-4,4 -4,-280 1895,-280 1895,4 -4,4"/>
<text text-anchor="start" x="924.51" y="-42.4" font-family="Times-12" font-weight="bold" font-size="14.00">Legend</text>
<polygon fill="#ffffb3" stroke="transparent" points="711.5,-10 711.5,-30 731.5,-30 731.5,-10 711.5,-10"/>
<text text-anchor="start" x="735.13" y="-15.4" font-family="Times-12" font-size="14.00"> &#160;Declarations</text>
<polygon fill="#8dd3c7" stroke="transparent" points="824.5,-10 824.5,-30 844.5,-30 844.5,-10 824.5,-10"/>
<text text-anchor="start" x="848.23" y="-15.4" font-family="Times-12" font-size="14.00"> &#160;Module</text>
<polygon fill="#80b1d3" stroke="transparent" points="910.5,-10 910.5,-30 930.5,-30 930.5,-10 910.5,-10"/>
<text text-anchor="start" x="934.28" y="-15.4" font-family="Times-12" font-size="14.00"> &#160;Bootstrap</text>
<polygon fill="#fdb462" stroke="transparent" points="1007.5,-10 1007.5,-30 1027.5,-30 1027.5,-10 1007.5,-10"/>
<text text-anchor="start" x="1031.17" y="-15.4" font-family="Times-12" font-size="14.00"> &#160;Providers</text>
<polygon fill="#fb8072" stroke="transparent" points="1103.5,-10 1103.5,-30 1123.5,-30 1123.5,-10 1103.5,-10"/>
<text text-anchor="start" x="1127.23" y="-15.4" font-family="Times-12" font-size="14.00"> &#160;Exports</text>
<g id="clust1" class="cluster">
<title>cluster_NgxInputColorModule</title>
<polygon fill="none" stroke="black" stroke-dasharray="1,5" points="8,-70 8,-268 1883,-268 1883,-70 8,-70"/>
</g>
<g id="clust11" class="cluster">
<title>cluster_NgxInputColorModule_exports</title>
<polygon fill="none" stroke="black" points="551,-208 551,-260 1310,-260 1310,-208 551,-208"/>
</g>
<g id="clust10" class="cluster">
<title>cluster_NgxInputColorModule_imports</title>
<polygon fill="none" stroke="black" points="1077,-78 1077,-130 1875,-130 1875,-78 1077,-78"/>
</g>
<g id="clust2" class="cluster">
<title>cluster_NgxInputColorModule_declarations</title>
<polygon fill="none" stroke="black" points="16,-78 16,-130 1069,-130 1069,-78 16,-78"/>
</g>
<!-- CmykComponent -->
<g id="node1" class="node">
<title>CmykComponent</title>
<polygon fill="#ffffb3" stroke="black" points="1060.56,-122 945.44,-122 945.44,-86 1060.56,-86 1060.56,-122"/>
<text text-anchor="middle" x="1003" y="-99.8" font-family="Times,serif" font-size="14.00">CmykComponent</text>
</g>
<!-- NgxInputColorModule -->
<g id="node8" class="node">
<title>NgxInputColorModule</title>
<polygon fill="#8dd3c7" stroke="black" points="1012.6,-187 1009.6,-191 988.6,-191 985.6,-187 867.4,-187 867.4,-151 1012.6,-151 1012.6,-187"/>
<text text-anchor="middle" x="940" y="-164.8" font-family="Times,serif" font-size="14.00">NgxInputColorModule</text>
</g>
<!-- CmykComponent&#45;&gt;NgxInputColorModule -->
<g id="edge1" class="edge">
<title>CmykComponent&#45;&gt;NgxInputColorModule</title>
<path fill="none" stroke="black" d="M978.88,-122.11C978.88,-122.11 978.88,-140.99 978.88,-140.99"/>
<polygon fill="black" stroke="black" points="975.38,-140.99 978.88,-150.99 982.38,-140.99 975.38,-140.99"/>
</g>
<!-- HslComponent -->
<g id="node2" class="node">
<title>HslComponent</title>
<polygon fill="#ffffb3" stroke="black" points="927.27,-122 826.73,-122 826.73,-86 927.27,-86 927.27,-122"/>
<text text-anchor="middle" x="877" y="-99.8" font-family="Times,serif" font-size="14.00">HslComponent</text>
</g>
<!-- HslComponent&#45;&gt;NgxInputColorModule -->
<g id="edge2" class="edge">
<title>HslComponent&#45;&gt;NgxInputColorModule</title>
<path fill="none" stroke="black" d="M897.42,-122.11C897.42,-122.11 897.42,-140.99 897.42,-140.99"/>
<polygon fill="black" stroke="black" points="893.92,-140.99 897.42,-150.99 900.92,-140.99 893.92,-140.99"/>
</g>
<!-- NgxInputColorComponent -->
<g id="node3" class="node">
<title>NgxInputColorComponent</title>
<polygon fill="#ffffb3" stroke="black" points="808.38,-122 641.62,-122 641.62,-86 808.38,-86 808.38,-122"/>
<text text-anchor="middle" x="725" y="-99.8" font-family="Times,serif" font-size="14.00">NgxInputColorComponent</text>
</g>
<!-- NgxInputColorComponent&#45;&gt;NgxInputColorModule -->
<g id="edge3" class="edge">
<title>NgxInputColorComponent&#45;&gt;NgxInputColorModule</title>
<path fill="none" stroke="black" d="M779.85,-122.24C779.85,-137.57 779.85,-157 779.85,-157 779.85,-157 857.42,-157 857.42,-157"/>
<polygon fill="black" stroke="black" points="857.42,-160.5 867.42,-157 857.42,-153.5 857.42,-160.5"/>
</g>
<!-- NgxInputColorDirective -->
<g id="node4" class="node">
<title>NgxInputColorDirective</title>
<polygon fill="#ffffb3" stroke="black" points="623.63,-122 470.37,-122 470.37,-86 623.63,-86 623.63,-122"/>
<text text-anchor="middle" x="547" y="-99.8" font-family="Times,serif" font-size="14.00">NgxInputColorDirective</text>
</g>
<!-- NgxInputColorDirective&#45;&gt;NgxInputColorModule -->
<g id="edge4" class="edge">
<title>NgxInputColorDirective&#45;&gt;NgxInputColorModule</title>
<path fill="none" stroke="black" d="M591.35,-122.03C591.35,-139.06 591.35,-162 591.35,-162 591.35,-162 857.34,-162 857.34,-162"/>
<polygon fill="black" stroke="black" points="857.34,-165.5 867.34,-162 857.34,-158.5 857.34,-165.5"/>
</g>
<!-- NgxInputGradientDirective -->
<g id="node5" class="node">
<title>NgxInputGradientDirective</title>
<polygon fill="#ffffb3" stroke="black" points="452.22,-122 281.78,-122 281.78,-86 452.22,-86 452.22,-122"/>
<text text-anchor="middle" x="367" y="-99.8" font-family="Times,serif" font-size="14.00">NgxInputGradientDirective</text>
</g>
<!-- NgxInputGradientDirective&#45;&gt;NgxInputColorModule -->
<g id="edge5" class="edge">
<title>NgxInputGradientDirective&#45;&gt;NgxInputColorModule</title>
<path fill="none" stroke="black" d="M367,-122.22C367,-140.83 367,-167 367,-167 367,-167 857.43,-167 857.43,-167"/>
<polygon fill="black" stroke="black" points="857.43,-170.5 867.43,-167 857.43,-163.5 857.43,-170.5"/>
</g>
<!-- PickerComponent -->
<g id="node6" class="node">
<title>PickerComponent</title>
<polygon fill="#ffffb3" stroke="black" points="263.6,-122 146.4,-122 146.4,-86 263.6,-86 263.6,-122"/>
<text text-anchor="middle" x="205" y="-99.8" font-family="Times,serif" font-size="14.00">PickerComponent</text>
</g>
<!-- PickerComponent&#45;&gt;NgxInputColorModule -->
<g id="edge6" class="edge">
<title>PickerComponent&#45;&gt;NgxInputColorModule</title>
<path fill="none" stroke="black" d="M205,-122.22C205,-142.37 205,-172 205,-172 205,-172 857.18,-172 857.18,-172"/>
<polygon fill="black" stroke="black" points="857.18,-175.5 867.18,-172 857.18,-168.5 857.18,-175.5"/>
</g>
<!-- RgbComponent -->
<g id="node7" class="node">
<title>RgbComponent</title>
<polygon fill="#ffffb3" stroke="black" points="128.17,-122 23.83,-122 23.83,-86 128.17,-86 128.17,-122"/>
<text text-anchor="middle" x="76" y="-99.8" font-family="Times,serif" font-size="14.00">RgbComponent</text>
</g>
<!-- RgbComponent&#45;&gt;NgxInputColorModule -->
<g id="edge7" class="edge">
<title>RgbComponent&#45;&gt;NgxInputColorModule</title>
<path fill="none" stroke="black" d="M76,-122.04C76,-143.66 76,-177 76,-177 76,-177 857.45,-177 857.45,-177"/>
<polygon fill="black" stroke="black" points="857.45,-180.5 867.45,-177 857.45,-173.5 857.45,-180.5"/>
</g>
<!-- NgxInputColorComponent  -->
<g id="node14" class="node">
<title>NgxInputColorComponent </title>
<polygon fill="#fb8072" stroke="black" points="1302.38,-252 1131.62,-252 1131.62,-216 1302.38,-216 1302.38,-252"/>
<text text-anchor="middle" x="1217" y="-229.8" font-family="Times,serif" font-size="14.00">NgxInputColorComponent </text>
</g>
<!-- NgxInputColorModule&#45;&gt;NgxInputColorComponent  -->
<g id="edge13" class="edge">
<title>NgxInputColorModule&#45;&gt;NgxInputColorComponent </title>
<path fill="none" stroke="black" stroke-dasharray="5,2" d="M1012.62,-182C1078.57,-182 1165.6,-182 1165.6,-182 1165.6,-182 1165.6,-205.81 1165.6,-205.81"/>
<polygon fill="black" stroke="black" points="1162.1,-205.81 1165.6,-215.81 1169.1,-205.81 1162.1,-205.81"/>
</g>
<!-- NgxInputColorDirective  -->
<g id="node15" class="node">
<title>NgxInputColorDirective </title>
<polygon fill="#fb8072" stroke="black" points="1113.63,-252 956.37,-252 956.37,-216 1113.63,-216 1113.63,-252"/>
<text text-anchor="middle" x="1035" y="-229.8" font-family="Times,serif" font-size="14.00">NgxInputColorDirective </text>
</g>
<!-- NgxInputColorModule&#45;&gt;NgxInputColorDirective  -->
<g id="edge14" class="edge">
<title>NgxInputColorModule&#45;&gt;NgxInputColorDirective </title>
<path fill="none" stroke="black" stroke-dasharray="5,2" d="M984.49,-187.11C984.49,-187.11 984.49,-205.99 984.49,-205.99"/>
<polygon fill="black" stroke="black" points="980.99,-205.99 984.49,-215.99 987.99,-205.99 980.99,-205.99"/>
</g>
<!-- NgxInputGradientComponent  -->
<g id="node16" class="node">
<title>NgxInputGradientComponent </title>
<polygon fill="#fb8072" stroke="black" points="938.97,-252 751.03,-252 751.03,-216 938.97,-216 938.97,-252"/>
<text text-anchor="middle" x="845" y="-229.8" font-family="Times,serif" font-size="14.00">NgxInputGradientComponent </text>
</g>
<!-- NgxInputColorModule&#45;&gt;NgxInputGradientComponent  -->
<g id="edge15" class="edge">
<title>NgxInputColorModule&#45;&gt;NgxInputGradientComponent </title>
<path fill="none" stroke="black" stroke-dasharray="5,2" d="M903.09,-187.11C903.09,-187.11 903.09,-205.99 903.09,-205.99"/>
<polygon fill="black" stroke="black" points="899.59,-205.99 903.09,-215.99 906.59,-205.99 899.59,-205.99"/>
</g>
<!-- NgxInputGradientDirective  -->
<g id="node17" class="node">
<title>NgxInputGradientDirective </title>
<polygon fill="#fb8072" stroke="black" points="733.22,-252 558.78,-252 558.78,-216 733.22,-216 733.22,-252"/>
<text text-anchor="middle" x="646" y="-229.8" font-family="Times,serif" font-size="14.00">NgxInputGradientDirective </text>
</g>
<!-- NgxInputColorModule&#45;&gt;NgxInputGradientDirective  -->
<g id="edge16" class="edge">
<title>NgxInputColorModule&#45;&gt;NgxInputGradientDirective </title>
<path fill="none" stroke="black" stroke-dasharray="5,2" d="M867.26,-182C792.62,-182 687.34,-182 687.34,-182 687.34,-182 687.34,-205.81 687.34,-205.81"/>
<polygon fill="black" stroke="black" points="683.84,-205.81 687.34,-215.81 690.84,-205.81 683.84,-205.81"/>
</g>
<!-- EnumToArrayPipe -->
<g id="node9" class="node">
<title>EnumToArrayPipe</title>
<polygon fill="#8dd3c7" stroke="black" points="1867.03,-122 1864.03,-126 1843.03,-126 1840.03,-122 1744.97,-122 1744.97,-86 1867.03,-86 1867.03,-122"/>
<text text-anchor="middle" x="1806" y="-99.8" font-family="Times,serif" font-size="14.00">EnumToArrayPipe</text>
</g>
<!-- EnumToArrayPipe&#45;&gt;NgxInputColorModule -->
<g id="edge8" class="edge">
<title>EnumToArrayPipe&#45;&gt;NgxInputColorModule</title>
<path fill="none" stroke="black" d="M1806,-122.04C1806,-143.66 1806,-177 1806,-177 1806,-177 1022.72,-177 1022.72,-177"/>
<polygon fill="black" stroke="black" points="1022.72,-173.5 1012.72,-177 1022.72,-180.5 1022.72,-173.5"/>
</g>
<!-- NgxInputGradientComponent -->
<g id="node10" class="node">
<title>NgxInputGradientComponent</title>
<polygon fill="#8dd3c7" stroke="black" points="1726.97,-122 1723.97,-126 1702.97,-126 1699.97,-122 1543.03,-122 1543.03,-86 1726.97,-86 1726.97,-122"/>
<text text-anchor="middle" x="1635" y="-99.8" font-family="Times,serif" font-size="14.00">NgxInputGradientComponent</text>
</g>
<!-- NgxInputGradientComponent&#45;&gt;NgxInputColorModule -->
<g id="edge9" class="edge">
<title>NgxInputGradientComponent&#45;&gt;NgxInputColorModule</title>
<path fill="none" stroke="black" d="M1635,-122.22C1635,-142.37 1635,-172 1635,-172 1635,-172 1022.74,-172 1022.74,-172"/>
<polygon fill="black" stroke="black" points="1022.74,-168.5 1012.74,-172 1022.74,-175.5 1022.74,-168.5"/>
</g>
<!-- RangeSliderComponent -->
<g id="node11" class="node">
<title>RangeSliderComponent</title>
<polygon fill="#8dd3c7" stroke="black" points="1525.04,-122 1522.04,-126 1501.04,-126 1498.04,-122 1374.96,-122 1374.96,-86 1525.04,-86 1525.04,-122"/>
<text text-anchor="middle" x="1450" y="-99.8" font-family="Times,serif" font-size="14.00">RangeSliderComponent</text>
</g>
<!-- RangeSliderComponent&#45;&gt;NgxInputColorModule -->
<g id="edge10" class="edge">
<title>RangeSliderComponent&#45;&gt;NgxInputColorModule</title>
<path fill="none" stroke="black" d="M1450,-122.22C1450,-140.83 1450,-167 1450,-167 1450,-167 1022.8,-167 1022.8,-167"/>
<polygon fill="black" stroke="black" points="1022.8,-163.5 1012.8,-167 1022.8,-170.5 1022.8,-163.5"/>
</g>
<!-- SaturationComponent -->
<g id="node12" class="node">
<title>SaturationComponent</title>
<polygon fill="#8dd3c7" stroke="black" points="1356.38,-122 1353.38,-126 1332.38,-126 1329.38,-122 1217.62,-122 1217.62,-86 1356.38,-86 1356.38,-122"/>
<text text-anchor="middle" x="1287" y="-99.8" font-family="Times,serif" font-size="14.00">SaturationComponent</text>
</g>
<!-- SaturationComponent&#45;&gt;NgxInputColorModule -->
<g id="edge11" class="edge">
<title>SaturationComponent&#45;&gt;NgxInputColorModule</title>
<path fill="none" stroke="black" d="M1259.88,-122.03C1259.88,-139.06 1259.88,-162 1259.88,-162 1259.88,-162 1022.58,-162 1022.58,-162"/>
<polygon fill="black" stroke="black" points="1022.58,-158.5 1012.58,-162 1022.58,-165.5 1022.58,-158.5"/>
</g>
<!-- SliderComponent -->
<g id="node13" class="node">
<title>SliderComponent</title>
<polygon fill="#8dd3c7" stroke="black" points="1199.27,-122 1196.27,-126 1175.27,-126 1172.27,-122 1084.73,-122 1084.73,-86 1199.27,-86 1199.27,-122"/>
<text text-anchor="middle" x="1142" y="-99.8" font-family="Times,serif" font-size="14.00">SliderComponent</text>
</g>
<!-- SliderComponent&#45;&gt;NgxInputColorModule -->
<g id="edge12" class="edge">
<title>SliderComponent&#45;&gt;NgxInputColorModule</title>
<path fill="none" stroke="black" d="M1099.09,-122.24C1099.09,-137.57 1099.09,-157 1099.09,-157 1099.09,-157 1022.56,-157 1022.56,-157"/>
<polygon fill="black" stroke="black" points="1022.56,-153.5 1012.56,-157 1022.56,-160.5 1022.56,-153.5"/>
</g>
</g>
</svg>
