<?xml version="1.0" encoding="UTF-8" standalone="no"?>
<!DOCTYPE svg PUBLIC "-//W3C//DTD SVG 1.1//EN"
 "http://www.w3.org/Graphics/SVG/1.1/DTD/svg11.dtd">
<!-- Generated by graphviz version 2.47.0 (20210316.0004)
 -->
<!-- Title: dependencies Pages: 1 -->
<svg width="504pt" height="284pt"
 viewBox="0.00 0.00 504.00 284.00" xmlns="http://www.w3.org/2000/svg" xmlns:xlink="http://www.w3.org/1999/xlink">
<g id="graph0" class="graph" transform="scale(1 1) rotate(0) translate(4 280)">
<title>dependencies</title>
<polygon fill="white" stroke="transparent" points="-4,4 -4,-280 500,-280 500,4 -4,4"/>
<text text-anchor="start" x="227.01" y="-42.4" font-family="Times-12" font-weight="bold" font-size="14.00">Legend</text>
<polygon fill="#ffffb3" stroke="transparent" points="14,-10 14,-30 34,-30 34,-10 14,-10"/>
<text text-anchor="start" x="37.63" y="-15.4" font-family="Times-12" font-size="14.00"> &#160;Declarations</text>
<polygon fill="#8dd3c7" stroke="transparent" points="127,-10 127,-30 147,-30 147,-10 127,-10"/>
<text text-anchor="start" x="150.73" y="-15.4" font-family="Times-12" font-size="14.00"> &#160;Module</text>
<polygon fill="#80b1d3" stroke="transparent" points="213,-10 213,-30 233,-30 233,-10 213,-10"/>
<text text-anchor="start" x="236.78" y="-15.4" font-family="Times-12" font-size="14.00"> &#160;Bootstrap</text>
<polygon fill="#fdb462" stroke="transparent" points="310,-10 310,-30 330,-30 330,-10 310,-10"/>
<text text-anchor="start" x="333.67" y="-15.4" font-family="Times-12" font-size="14.00"> &#160;Providers</text>
<polygon fill="#fb8072" stroke="transparent" points="406,-10 406,-30 426,-30 426,-10 406,-10"/>
<text text-anchor="start" x="429.73" y="-15.4" font-family="Times-12" font-size="14.00"> &#160;Exports</text>
<g id="clust1" class="cluster">
<title>cluster_NgxInputBoxShadowModule</title>
<polygon fill="none" stroke="black" stroke-dasharray="1,5" points="37,-70 37,-268 459,-268 459,-70 37,-70"/>
</g>
<g id="clust4" class="cluster">
<title>cluster_NgxInputBoxShadowModule_exports</title>
<polygon fill="none" stroke="black" points="45,-208 45,-260 451,-260 451,-208 45,-208"/>
</g>
<g id="clust3" class="cluster">
<title>cluster_NgxInputBoxShadowModule_imports</title>
<polygon fill="none" stroke="black" points="49,-78 49,-130 447,-130 447,-78 49,-78"/>
</g>
<!-- NgxBoxShadowComponent -->
<g id="node1" class="node">
<title>NgxBoxShadowComponent</title>
<polygon fill="#8dd3c7" stroke="black" points="438.88,-122 435.88,-126 414.88,-126 411.88,-122 265.12,-122 265.12,-86 438.88,-86 438.88,-122"/>
<text text-anchor="middle" x="352" y="-99.8" font-family="Times,serif" font-size="14.00">NgxBoxShadowComponent</text>
</g>
<!-- NgxInputBoxShadowModule -->
<g id="node3" class="node">
<title>NgxInputBoxShadowModule</title>
<polygon fill="#8dd3c7" stroke="black" points="243.65,-187 240.65,-191 219.65,-191 216.65,-187 62.35,-187 62.35,-151 243.65,-151 243.65,-187"/>
<text text-anchor="middle" x="153" y="-164.8" font-family="Times,serif" font-size="14.00">NgxInputBoxShadowModule</text>
</g>
<!-- NgxBoxShadowComponent&#45;&gt;NgxInputBoxShadowModule -->
<g id="edge1" class="edge">
<title>NgxBoxShadowComponent&#45;&gt;NgxInputBoxShadowModule</title>
<path fill="none" stroke="black" d="M381.06,-122.02C381.06,-139.37 381.06,-163 381.06,-163 381.06,-163 253.79,-163 253.79,-163"/>
<polygon fill="black" stroke="black" points="253.79,-159.5 243.79,-163 253.79,-166.5 253.79,-159.5"/>
</g>
<!-- NgxInputBoxShadowDirective -->
<g id="node2" class="node">
<title>NgxInputBoxShadowDirective</title>
<polygon fill="#8dd3c7" stroke="black" points="247.18,-122 244.18,-126 223.18,-126 220.18,-122 56.82,-122 56.82,-86 247.18,-86 247.18,-122"/>
<text text-anchor="middle" x="152" y="-99.8" font-family="Times,serif" font-size="14.00">NgxInputBoxShadowDirective</text>
</g>
<!-- NgxInputBoxShadowDirective&#45;&gt;NgxInputBoxShadowModule -->
<g id="edge2" class="edge">
<title>NgxInputBoxShadowDirective&#45;&gt;NgxInputBoxShadowModule</title>
<path fill="none" stroke="black" d="M153,-122.11C153,-122.11 153,-140.99 153,-140.99"/>
<polygon fill="black" stroke="black" points="149.5,-140.99 153,-150.99 156.5,-140.99 149.5,-140.99"/>
</g>
<!-- NgxBoxShadowComponent  -->
<g id="node4" class="node">
<title>NgxBoxShadowComponent </title>
<polygon fill="#fb8072" stroke="black" points="442.88,-252 265.12,-252 265.12,-216 442.88,-216 442.88,-252"/>
<text text-anchor="middle" x="354" y="-229.8" font-family="Times,serif" font-size="14.00">NgxBoxShadowComponent </text>
</g>
<!-- NgxInputBoxShadowModule&#45;&gt;NgxBoxShadowComponent  -->
<g id="edge3" class="edge">
<title>NgxInputBoxShadowModule&#45;&gt;NgxBoxShadowComponent </title>
<path fill="none" stroke="black" stroke-dasharray="5,2" d="M244.07,-175C284.54,-175 323.19,-175 323.19,-175 323.19,-175 323.19,-205.98 323.19,-205.98"/>
<polygon fill="black" stroke="black" points="319.69,-205.98 323.19,-215.98 326.69,-205.98 319.69,-205.98"/>
</g>
<!-- NgxInputBoxShadowDirective  -->
<g id="node5" class="node">
<title>NgxInputBoxShadowDirective </title>
<polygon fill="#fb8072" stroke="black" points="246.68,-252 53.32,-252 53.32,-216 246.68,-216 246.68,-252"/>
<text text-anchor="middle" x="150" y="-229.8" font-family="Times,serif" font-size="14.00">NgxInputBoxShadowDirective </text>
</g>
<!-- NgxInputBoxShadowModule&#45;&gt;NgxInputBoxShadowDirective  -->
<g id="edge4" class="edge">
<title>NgxInputBoxShadowModule&#45;&gt;NgxInputBoxShadowDirective </title>
<path fill="none" stroke="black" stroke-dasharray="5,2" d="M153,-187.11C153,-187.11 153,-205.99 153,-205.99"/>
<polygon fill="black" stroke="black" points="149.5,-205.99 153,-215.99 156.5,-205.99 149.5,-205.99"/>
</g>
</g>
</svg>
