<?xml version="1.0" encoding="UTF-8" standalone="no"?>
<!DOCTYPE svg PUBLIC "-//W3C//DTD SVG 1.1//EN"
 "http://www.w3.org/Graphics/SVG/1.1/DTD/svg11.dtd">
<!-- Generated by graphviz version 2.47.0 (20210316.0004)
 -->
<!-- Title: dependencies Pages: 1 -->
<svg width="1899pt" height="284pt"
 viewBox="0.00 0.00 1899.00 284.00" xmlns="http://www.w3.org/2000/svg" xmlns:xlink="http://www.w3.org/1999/xlink">
<g id="graph0" class="graph" transform="scale(1 1) rotate(0) translate(4 280)">
<title>dependencies</title>
<polygon fill="white" stroke="transparent" points="-4,4 -4,-280 1895,-280 1895,4 -4,4"/>
<text text-anchor="start" x="924.51" y="-42.4" font-family="Times-12" font-weight="bold" font-size="14.00">Legend</text>
<polygon fill="#ffffb3" stroke="transparent" points="711.5,-10 711.5,-30 731.5,-30 731.5,-10 711.5,-10"/>
<text text-anchor="start" x="735.13" y="-15.4" font-family="Times-12" font-size="14.00"> &#160;Declarations</text>
<polygon fill="#8dd3c7" stroke="transparent" points="824.5,-10 824.5,-30 844.5,-30 844.5,-10 824.5,-10"/>
<text text-anchor="start" x="848.23" y="-15.4" font-family="Times-12" font-size="14.00"> &#160;Module</text>
<polygon fill="#80b1d3" stroke="transparent" points="910.5,-10 910.5,-30 930.5,-30 930.5,-10 910.5,-10"/>
<text text-anchor="start" x="934.28" y="-15.4" font-family="Times-12" font-size="14.00"> &#160;Bootstrap</text>
<polygon fill="#fdb462" stroke="transparent" points="1007.5,-10 1007.5,-30 1027.5,-30 1027.5,-10 1007.5,-10"/>
<text text-anchor="start" x="1031.17" y="-15.4" font-family="Times-12" font-size="14.00"> &#160;Providers</text>
<polygon fill="#fb8072" stroke="transparent" points="1103.5,-10 1103.5,-30 1123.5,-30 1123.5,-10 1103.5,-10"/>
<text text-anchor="start" x="1127.23" y="-15.4" font-family="Times-12" font-size="14.00"> &#160;Exports</text>
<g id="clust1" class="cluster">
<title>cluster_NgxInputColorModule</title>
<polygon fill="none" stroke="black" stroke-dasharray="1,5" points="8,-70 8,-268 1883,-268 1883,-70 8,-70"/>
</g>
<g id="clust2" class="cluster">
<title>cluster_NgxInputColorModule_declarations</title>
<polygon fill="none" stroke="black" points="822,-78 822,-130 1875,-130 1875,-78 822,-78"/>
</g>
<g id="clust10" class="cluster">
<title>cluster_NgxInputColorModule_imports</title>
<polygon fill="none" stroke="black" points="16,-78 16,-130 814,-130 814,-78 16,-78"/>
</g>
<g id="clust11" class="cluster">
<title>cluster_NgxInputColorModule_exports</title>
<polygon fill="none" stroke="black" points="557,-208 557,-260 1316,-260 1316,-208 557,-208"/>
</g>
<!-- CmykComponent -->
<g id="node1" class="node">
<title>CmykComponent</title>
<polygon fill="#ffffb3" stroke="black" points="1866.56,-122 1751.44,-122 1751.44,-86 1866.56,-86 1866.56,-122"/>
<text text-anchor="middle" x="1809" y="-99.8" font-family="Times,serif" font-size="14.00">CmykComponent</text>
</g>
<!-- NgxInputColorModule -->
<g id="node8" class="node">
<title>NgxInputColorModule</title>
<polygon fill="#8dd3c7" stroke="black" points="1018.6,-187 1015.6,-191 994.6,-191 991.6,-187 873.4,-187 873.4,-151 1018.6,-151 1018.6,-187"/>
<text text-anchor="middle" x="946" y="-164.8" font-family="Times,serif" font-size="14.00">NgxInputColorModule</text>
</g>
<!-- CmykComponent&#45;&gt;NgxInputColorModule -->
<g id="edge1" class="edge">
<title>CmykComponent&#45;&gt;NgxInputColorModule</title>
<path fill="none" stroke="black" d="M1809,-122.04C1809,-143.66 1809,-177 1809,-177 1809,-177 1028.84,-177 1028.84,-177"/>
<polygon fill="black" stroke="black" points="1028.84,-173.5 1018.84,-177 1028.84,-180.5 1028.84,-173.5"/>
</g>
<!-- HslComponent -->
<g id="node2" class="node">
<title>HslComponent</title>
<polygon fill="#ffffb3" stroke="black" points="1733.27,-122 1632.73,-122 1632.73,-86 1733.27,-86 1733.27,-122"/>
<text text-anchor="middle" x="1683" y="-99.8" font-family="Times,serif" font-size="14.00">HslComponent</text>
</g>
<!-- HslComponent&#45;&gt;NgxInputColorModule -->
<g id="edge2" class="edge">
<title>HslComponent&#45;&gt;NgxInputColorModule</title>
<path fill="none" stroke="black" d="M1683,-122.22C1683,-142.37 1683,-172 1683,-172 1683,-172 1028.68,-172 1028.68,-172"/>
<polygon fill="black" stroke="black" points="1028.68,-168.5 1018.68,-172 1028.68,-175.5 1028.68,-168.5"/>
</g>
<!-- NgxInputColorComponent -->
<g id="node3" class="node">
<title>NgxInputColorComponent</title>
<polygon fill="#ffffb3" stroke="black" points="1614.38,-122 1447.62,-122 1447.62,-86 1614.38,-86 1614.38,-122"/>
<text text-anchor="middle" x="1531" y="-99.8" font-family="Times,serif" font-size="14.00">NgxInputColorComponent</text>
</g>
<!-- NgxInputColorComponent&#45;&gt;NgxInputColorModule -->
<g id="edge3" class="edge">
<title>NgxInputColorComponent&#45;&gt;NgxInputColorModule</title>
<path fill="none" stroke="black" d="M1531,-122.22C1531,-140.83 1531,-167 1531,-167 1531,-167 1028.61,-167 1028.61,-167"/>
<polygon fill="black" stroke="black" points="1028.61,-163.5 1018.61,-167 1028.61,-170.5 1028.61,-163.5"/>
</g>
<!-- NgxInputColorDirective -->
<g id="node4" class="node">
<title>NgxInputColorDirective</title>
<polygon fill="#ffffb3" stroke="black" points="1429.63,-122 1276.37,-122 1276.37,-86 1429.63,-86 1429.63,-122"/>
<text text-anchor="middle" x="1353" y="-99.8" font-family="Times,serif" font-size="14.00">NgxInputColorDirective</text>
</g>
<!-- NgxInputColorDirective&#45;&gt;NgxInputColorModule -->
<g id="edge4" class="edge">
<title>NgxInputColorDirective&#45;&gt;NgxInputColorModule</title>
<path fill="none" stroke="black" d="M1292.19,-122.03C1292.19,-139.06 1292.19,-162 1292.19,-162 1292.19,-162 1028.57,-162 1028.57,-162"/>
<polygon fill="black" stroke="black" points="1028.57,-158.5 1018.57,-162 1028.57,-165.5 1028.57,-158.5"/>
</g>
<!-- NgxInputGradientDirective -->
<g id="node5" class="node">
<title>NgxInputGradientDirective</title>
<polygon fill="#ffffb3" stroke="black" points="1258.22,-122 1087.78,-122 1087.78,-86 1258.22,-86 1258.22,-122"/>
<text text-anchor="middle" x="1173" y="-99.8" font-family="Times,serif" font-size="14.00">NgxInputGradientDirective</text>
</g>
<!-- NgxInputGradientDirective&#45;&gt;NgxInputColorModule -->
<g id="edge5" class="edge">
<title>NgxInputGradientDirective&#45;&gt;NgxInputColorModule</title>
<path fill="none" stroke="black" d="M1103.6,-122.24C1103.6,-137.57 1103.6,-157 1103.6,-157 1103.6,-157 1028.8,-157 1028.8,-157"/>
<polygon fill="black" stroke="black" points="1028.8,-153.5 1018.8,-157 1028.8,-160.5 1028.8,-153.5"/>
</g>
<!-- PickerComponent -->
<g id="node6" class="node">
<title>PickerComponent</title>
<polygon fill="#ffffb3" stroke="black" points="1069.6,-122 952.4,-122 952.4,-86 1069.6,-86 1069.6,-122"/>
<text text-anchor="middle" x="1011" y="-99.8" font-family="Times,serif" font-size="14.00">PickerComponent</text>
</g>
<!-- PickerComponent&#45;&gt;NgxInputColorModule -->
<g id="edge6" class="edge">
<title>PickerComponent&#45;&gt;NgxInputColorModule</title>
<path fill="none" stroke="black" d="M985.5,-122.11C985.5,-122.11 985.5,-140.99 985.5,-140.99"/>
<polygon fill="black" stroke="black" points="982,-140.99 985.5,-150.99 989,-140.99 982,-140.99"/>
</g>
<!-- RgbComponent -->
<g id="node7" class="node">
<title>RgbComponent</title>
<polygon fill="#ffffb3" stroke="black" points="934.17,-122 829.83,-122 829.83,-86 934.17,-86 934.17,-122"/>
<text text-anchor="middle" x="882" y="-99.8" font-family="Times,serif" font-size="14.00">RgbComponent</text>
</g>
<!-- RgbComponent&#45;&gt;NgxInputColorModule -->
<g id="edge7" class="edge">
<title>RgbComponent&#45;&gt;NgxInputColorModule</title>
<path fill="none" stroke="black" d="M903.89,-122.11C903.89,-122.11 903.89,-140.99 903.89,-140.99"/>
<polygon fill="black" stroke="black" points="900.39,-140.99 903.89,-150.99 907.39,-140.99 900.39,-140.99"/>
</g>
<!-- NgxInputColorComponent  -->
<g id="node14" class="node">
<title>NgxInputColorComponent </title>
<polygon fill="#fb8072" stroke="black" points="1308.38,-252 1137.62,-252 1137.62,-216 1308.38,-216 1308.38,-252"/>
<text text-anchor="middle" x="1223" y="-229.8" font-family="Times,serif" font-size="14.00">NgxInputColorComponent </text>
</g>
<!-- NgxInputColorModule&#45;&gt;NgxInputColorComponent  -->
<g id="edge13" class="edge">
<title>NgxInputColorModule&#45;&gt;NgxInputColorComponent </title>
<path fill="none" stroke="black" stroke-dasharray="5,2" d="M1018.58,-182C1093.05,-182 1198.09,-182 1198.09,-182 1198.09,-182 1198.09,-205.81 1198.09,-205.81"/>
<polygon fill="black" stroke="black" points="1194.59,-205.81 1198.09,-215.81 1201.59,-205.81 1194.59,-205.81"/>
</g>
<!-- NgxInputColorDirective  -->
<g id="node15" class="node">
<title>NgxInputColorDirective </title>
<polygon fill="#fb8072" stroke="black" points="1119.63,-252 962.37,-252 962.37,-216 1119.63,-216 1119.63,-252"/>
<text text-anchor="middle" x="1041" y="-229.8" font-family="Times,serif" font-size="14.00">NgxInputColorDirective </text>
</g>
<!-- NgxInputColorModule&#45;&gt;NgxInputColorDirective  -->
<g id="edge14" class="edge">
<title>NgxInputColorModule&#45;&gt;NgxInputColorDirective </title>
<path fill="none" stroke="black" stroke-dasharray="5,2" d="M990.49,-187.11C990.49,-187.11 990.49,-205.99 990.49,-205.99"/>
<polygon fill="black" stroke="black" points="986.99,-205.99 990.49,-215.99 993.99,-205.99 986.99,-205.99"/>
</g>
<!-- NgxInputGradientComponent  -->
<g id="node16" class="node">
<title>NgxInputGradientComponent </title>
<polygon fill="#fb8072" stroke="black" points="944.97,-252 757.03,-252 757.03,-216 944.97,-216 944.97,-252"/>
<text text-anchor="middle" x="851" y="-229.8" font-family="Times,serif" font-size="14.00">NgxInputGradientComponent </text>
</g>
<!-- NgxInputColorModule&#45;&gt;NgxInputGradientComponent  -->
<g id="edge15" class="edge">
<title>NgxInputColorModule&#45;&gt;NgxInputGradientComponent </title>
<path fill="none" stroke="black" stroke-dasharray="5,2" d="M909.09,-187.11C909.09,-187.11 909.09,-205.99 909.09,-205.99"/>
<polygon fill="black" stroke="black" points="905.59,-205.99 909.09,-215.99 912.59,-205.99 905.59,-205.99"/>
</g>
<!-- NgxInputGradientDirective  -->
<g id="node17" class="node">
<title>NgxInputGradientDirective </title>
<polygon fill="#fb8072" stroke="black" points="739.22,-252 564.78,-252 564.78,-216 739.22,-216 739.22,-252"/>
<text text-anchor="middle" x="652" y="-229.8" font-family="Times,serif" font-size="14.00">NgxInputGradientDirective </text>
</g>
<!-- NgxInputColorModule&#45;&gt;NgxInputGradientDirective  -->
<g id="edge16" class="edge">
<title>NgxInputColorModule&#45;&gt;NgxInputGradientDirective </title>
<path fill="none" stroke="black" stroke-dasharray="5,2" d="M873.38,-182C804.49,-182 711.42,-182 711.42,-182 711.42,-182 711.42,-205.81 711.42,-205.81"/>
<polygon fill="black" stroke="black" points="707.92,-205.81 711.42,-215.81 714.92,-205.81 707.92,-205.81"/>
</g>
<!-- EnumToArrayPipe -->
<g id="node9" class="node">
<title>EnumToArrayPipe</title>
<polygon fill="#8dd3c7" stroke="black" points="806.03,-122 803.03,-126 782.03,-126 779.03,-122 683.97,-122 683.97,-86 806.03,-86 806.03,-122"/>
<text text-anchor="middle" x="745" y="-99.8" font-family="Times,serif" font-size="14.00">EnumToArrayPipe</text>
</g>
<!-- EnumToArrayPipe&#45;&gt;NgxInputColorModule -->
<g id="edge8" class="edge">
<title>EnumToArrayPipe&#45;&gt;NgxInputColorModule</title>
<path fill="none" stroke="black" d="M781.76,-122.24C781.76,-137.57 781.76,-157 781.76,-157 781.76,-157 863.01,-157 863.01,-157"/>
<polygon fill="black" stroke="black" points="863.01,-160.5 873.01,-157 863.01,-153.5 863.01,-160.5"/>
</g>
<!-- NgxInputGradientComponent -->
<g id="node10" class="node">
<title>NgxInputGradientComponent</title>
<polygon fill="#8dd3c7" stroke="black" points="665.97,-122 662.97,-126 641.97,-126 638.97,-122 482.03,-122 482.03,-86 665.97,-86 665.97,-122"/>
<text text-anchor="middle" x="574" y="-99.8" font-family="Times,serif" font-size="14.00">NgxInputGradientComponent</text>
</g>
<!-- NgxInputGradientComponent&#45;&gt;NgxInputColorModule -->
<g id="edge9" class="edge">
<title>NgxInputGradientComponent&#45;&gt;NgxInputColorModule</title>
<path fill="none" stroke="black" d="M615.44,-122.03C615.44,-139.06 615.44,-162 615.44,-162 615.44,-162 863.05,-162 863.05,-162"/>
<polygon fill="black" stroke="black" points="863.05,-165.5 873.05,-162 863.05,-158.5 863.05,-165.5"/>
</g>
<!-- RangeSliderComponent -->
<g id="node11" class="node">
<title>RangeSliderComponent</title>
<polygon fill="#8dd3c7" stroke="black" points="464.04,-122 461.04,-126 440.04,-126 437.04,-122 313.96,-122 313.96,-86 464.04,-86 464.04,-122"/>
<text text-anchor="middle" x="389" y="-99.8" font-family="Times,serif" font-size="14.00">RangeSliderComponent</text>
</g>
<!-- RangeSliderComponent&#45;&gt;NgxInputColorModule -->
<g id="edge10" class="edge">
<title>RangeSliderComponent&#45;&gt;NgxInputColorModule</title>
<path fill="none" stroke="black" d="M389,-122.22C389,-140.83 389,-167 389,-167 389,-167 863.18,-167 863.18,-167"/>
<polygon fill="black" stroke="black" points="863.18,-170.5 873.18,-167 863.18,-163.5 863.18,-170.5"/>
</g>
<!-- SaturationComponent -->
<g id="node12" class="node">
<title>SaturationComponent</title>
<polygon fill="#8dd3c7" stroke="black" points="295.38,-122 292.38,-126 271.38,-126 268.38,-122 156.62,-122 156.62,-86 295.38,-86 295.38,-122"/>
<text text-anchor="middle" x="226" y="-99.8" font-family="Times,serif" font-size="14.00">SaturationComponent</text>
</g>
<!-- SaturationComponent&#45;&gt;NgxInputColorModule -->
<g id="edge11" class="edge">
<title>SaturationComponent&#45;&gt;NgxInputColorModule</title>
<path fill="none" stroke="black" d="M226,-122.22C226,-142.37 226,-172 226,-172 226,-172 863.33,-172 863.33,-172"/>
<polygon fill="black" stroke="black" points="863.33,-175.5 873.33,-172 863.33,-168.5 863.33,-175.5"/>
</g>
<!-- SliderComponent -->
<g id="node13" class="node">
<title>SliderComponent</title>
<polygon fill="#8dd3c7" stroke="black" points="138.27,-122 135.27,-126 114.27,-126 111.27,-122 23.73,-122 23.73,-86 138.27,-86 138.27,-122"/>
<text text-anchor="middle" x="81" y="-99.8" font-family="Times,serif" font-size="14.00">SliderComponent</text>
</g>
<!-- SliderComponent&#45;&gt;NgxInputColorModule -->
<g id="edge12" class="edge">
<title>SliderComponent&#45;&gt;NgxInputColorModule</title>
<path fill="none" stroke="black" d="M81,-122.04C81,-143.66 81,-177 81,-177 81,-177 863.37,-177 863.37,-177"/>
<polygon fill="black" stroke="black" points="863.37,-180.5 873.37,-177 863.37,-173.5 863.37,-180.5"/>
</g>
</g>
</svg>
